# xmcd
#
# Track frame offsets:
#	150
#	34789
#	59165
#	90885
#	117810
#	143681
#	162660
#	178482
#	204401
#	240086
#	257001
#	278238
#
# Disc length: 3931 seconds
# Revision: 0
# Processed by: cddbd v1.5.2PL0 Copyright (c) Steve Scherf et al.
# Submitted via: dBpowerAMP V12.0
#
DISCID=a60f590c
DTITLE=Arnaldur Indridason - Gletschergrab CD3
DYEAR=2006
DGENRE=Hörbuch
TTITLE0=25
TTITLE1=26
TTITLE2=27
TTITLE3=28
TTITLE4=29
TTITLE5=30
TTITLE6=31
TTITLE7=32
TTITLE8=33
TTITLE9=34
TTITLE10=25
TTITLE11=36
EXTD=
EXTT0=
EXTT1=
EXTT2=
EXTT3=
EXTT4=
EXTT5=
EXTT6=
EXTT7=
EXTT8=
EXTT9=
EXTT10=
EXTT11=
PLAYORDER=
